P3
# CREATOR: HORIA
6 6
255
255 255 255  255 255 255  255 255 255  255 255 255  255 255 255  255 255 255
255 255 255    0   0   0    0   0   0  255 255 255  255 255 255  255 255 255
255 255 255    0   0   0    0   0   0  255 255 255  255 255 255  255 255 255
255 255 255  255 255 255  255 255 255    0   0   0    0   0   0  255 255 255
255 255 255  255 255 255  255 255 255    0   0   0    0   0   0  255 255 255
255 255 255  255 255 255  255 255 255  255 255 255  255 255 255  255 255 255
